<?xml version="1.0" encoding="UTF-8"?><svg id="Objects" xmlns="http://www.w3.org/2000/svg" viewBox="0 0 1222.5 278.5"><defs><style>.cls-1{fill:#1d1d1b;}.cls-2{font-family:ProximaNova-Bold, 'Proxima Nova';font-size:150px;font-weight:700;}.cls-3{letter-spacing:-.02em;}.cls-4{letter-spacing:-.02em;}</style></defs><path class="cls-1" d="M209.39,242.52c14.38-7.88,26.78-18.34,36.87-31.1,9.74-12.32,16.92-26.24,21.34-41.38,4.42-15.14,5.85-30.74,4.27-46.37-1.64-16.18-6.48-31.68-14.36-46.05-.8-1.46-1.63-2.9-2.49-4.33l-10.32,18.7c5,10.6,8.12,21.84,9.31,33.49,1.35,13.32.13,26.61-3.64,39.52s-9.89,24.78-18.19,35.28c-8.59,10.86-19.17,19.78-31.43,26.5-12.26,6.72-25.46,10.84-39.24,12.24-13.32,1.35-26.62.13-39.52-3.64-12.91-3.77-24.78-9.89-35.28-18.19-3.94-3.11-7.62-6.49-11.03-10.11l-13.11,12.26c4.02,4.27,8.36,8.25,13.01,11.93,12.32,9.74,26.24,16.92,41.38,21.34,15.14,4.42,30.74,5.85,46.37,4.27,16.18-1.64,31.68-6.48,46.05-14.36ZM69.81,71.72c8.59-10.86,19.17-19.78,31.43-26.5,12.26-6.72,25.46-10.84,39.24-12.24,13.32-1.35,26.61-.13,39.52,3.64,12.91,3.77,24.78,9.89,35.28,18.19,3,2.37,5.85,4.9,8.55,7.57l13.11-12.27c-3.31-3.31-6.82-6.44-10.53-9.37-12.32-9.74-26.24-16.92-41.38-21.34-15.14-4.42-30.74-5.85-46.37-4.27-16.18,1.64-31.68,6.48-46.05,14.36-14.38,7.88-26.78,18.34-36.87,31.1-9.74,12.32-16.92,26.24-21.34,41.38-4.42,15.14-5.85,30.74-4.27,46.37,1.64,16.18,6.48,31.68,14.36,46.05.3.55.61,1.1.92,1.64l10.52-19.06c-4.2-9.7-6.86-19.91-7.93-30.45-1.35-13.32-.13-26.61,3.64-39.52,3.77-12.91,9.89-24.78,18.19-35.28Z"/><path class="cls-1" d="M257.78,41.42l-83.63,78.23-36.38-66.37c-.99-1.81-3.59-1.81-4.58,0L39.4,223.23c-1.44,2.61,1.9,5.21,4.08,3.17l83.63-78.23,36.38,66.37c.99,1.81,3.59,1.81,4.58,0l93.79-169.96c1.44-2.61-1.9-5.21-4.08-3.17Z"/><text class="cls-2" transform="translate(314.5 186.55)"><tspan class="cls-4" x="0" y="0">V</tspan><tspan class="cls-3" x="99.6" y="0">O</tspan><tspan x="210.75" y="0">TECRAFT</tspan></text></svg>