<?xml version="1.0" encoding="UTF-8"?><svg id="Objects" xmlns="http://www.w3.org/2000/svg" viewBox="0 0 1222.5 278.5"><defs><style>.cls-1{font-family:ProximaNova-Bold, 'Proxima Nova';font-size:150px;font-weight:700;}.cls-1,.cls-2{fill:#fff;}.cls-3{letter-spacing:-.02em;}.cls-4{letter-spacing:-.02em;}</style></defs><text class="cls-1" transform="translate(314.5 186.55)"><tspan class="cls-4" x="0" y="0">V</tspan><tspan class="cls-3" x="99.6" y="0">O</tspan><tspan x="210.75" y="0">TECRAFT</tspan></text><path class="cls-2" d="M255.04,73.31s0-.01-.01-.02l-.18.33.2-.31Z"/><path class="cls-2" d="M271.87,123.67c-1.49-14.63-5.58-28.69-12.17-41.87l-11.54,18.42c3.01,8.13,4.97,16.58,5.86,25.27,1.35,13.32.13,26.61-3.64,39.52-3.77,12.91-9.89,24.78-18.19,35.28-8.59,10.86-19.17,19.78-31.43,26.5-12.26,6.72-25.46,10.84-39.24,12.24-13.32,1.35-26.62.13-39.52-3.64-12.91-3.77-24.78-9.89-35.28-18.19-2.05-1.62-4.03-3.32-5.94-5.08l-13.17,12.23c2.55,2.41,5.2,4.73,7.98,6.92,12.32,9.74,26.24,16.92,41.38,21.34,15.14,4.42,30.74,5.85,46.37,4.27,16.18-1.64,31.68-6.48,46.05-14.36,14.38-7.88,26.78-18.34,36.87-31.1,9.74-12.32,16.92-26.24,21.34-41.38,4.42-15.14,5.85-30.74,4.27-46.37Z"/><path class="cls-2" d="M47.98,146.52c-1.35-13.32-.13-26.61,3.64-39.52,3.77-12.91,9.89-24.78,18.19-35.28,8.59-10.86,19.17-19.78,31.43-26.5,12.26-6.72,25.46-10.84,39.24-12.24,13.32-1.35,26.61-.13,39.52,3.64,12.91,3.77,24.78,9.89,35.28,18.19,1.1.87,2.17,1.77,3.23,2.68l12.72-12.72c-1.57-1.38-3.17-2.73-4.82-4.03-12.32-9.74-26.24-16.92-41.38-21.34-15.14-4.42-30.74-5.85-46.37-4.27-16.18,1.64-31.68,6.48-46.05,14.36-14.38,7.88-26.78,18.34-36.87,31.1-9.74,12.32-16.92,26.24-21.34,41.38s-5.85,30.74-4.27,46.37c1.33,13.03,4.73,25.62,10.12,37.54l11.59-20.08c-1.89-6.27-3.19-12.7-3.86-19.27Z"/><path class="cls-2" d="M162.92,216.5c.99,1.81,3.59,1.81,4.58,0L269.5,29.5c1.44-2.61-1.9-5.21-4.08-3.17l-89.92,99.17-37.73-72.22c-.99-1.81-3.59-1.81-4.58,0L39.4,223.23c-1.44,2.61,1.9,5.21,4.08,3.17l86.03-107.9,33.42,98Z"/></svg>