<?xml version="1.0" encoding="UTF-8"?><svg id="Layer_1" xmlns="http://www.w3.org/2000/svg" viewBox="0 0 24 24"><path d="M5.61,12.17c-.12.12-.18.25-.18.4,0,.17.06.31.18.42.12.11.3.16.53.16s.47-.06.68-.18c.21-.12.36-.26.45-.43.09-.17.13-.39.13-.66v-.35c-.3.11-.61.2-.94.28-.44.12-.73.23-.84.35Z"/><path d="M19.94,2.82H4.06c-1.3,0-2.35,1.05-2.35,2.35v10.07c0,1.3,1.05,2.35,2.35,2.35h9.45l2.4,3.75,2.4-3.75h1.63c1.3,0,2.35-1.05,2.35-2.35V5.17c0-1.3-1.05-2.35-2.35-2.35ZM7.75,14.24c-.08-.15-.14-.26-.16-.34s-.05-.2-.08-.36c-.29.28-.57.47-.85.59-.39.16-.84.24-1.35.24-.68,0-1.2-.16-1.55-.47-.35-.32-.53-.7-.53-1.17,0-.43.13-.79.38-1.07s.72-.49,1.41-.62c.82-.16,1.35-.28,1.6-.35.24-.07.5-.15.77-.26,0-.27-.06-.46-.17-.56s-.31-.16-.59-.16c-.36,0-.63.06-.81.17-.14.09-.25.26-.34.5l-2.09-.22c.08-.37.19-.65.34-.86.15-.21.36-.39.64-.55.2-.11.48-.2.83-.26s.73-.09,1.14-.09c.66,0,1.18.04,1.58.11.4.07.73.23.99.46.19.16.33.39.44.68.11.3.16.58.16.85v2.52c0,.27.02.48.05.63.03.15.11.35.22.58h-2.05ZM10.86,8.54h2.05v.93c.2-.4.4-.68.61-.83.21-.15.47-.23.78-.23s.67.1,1.06.3l-.68,1.56c-.26-.11-.46-.16-.61-.16-.29,0-.51.12-.67.35-.23.33-.34.96-.34,1.87v1.91h-2.2v-5.7ZM18.68,14.37c-.54,0-.95-.07-1.2-.21-.26-.14-.45-.35-.57-.64-.12-.29-.19-.74-.19-1.38v-2.01h-.81v-1.6h.81v-1.05l2.19-1.12v2.17h1.2v1.6h-1.2v2.02c0,.24.02.4.07.48.07.12.2.18.38.18.16,0,.39-.05.68-.14l.16,1.51c-.54.12-1.05.18-1.51.18Z"/></svg>